<?xml version="1.0" standalone="no"?><!DOCTYPE svg PUBLIC "-//W3C//DTD SVG 1.1//EN" "http://www.w3.org/Graphics/SVG/1.1/DTD/svg11.dtd"><svg class="icon" width="200px" height="200.00px" viewBox="0 0 1024 1024" version="1.1" xmlns="http://www.w3.org/2000/svg"><path d="M739.555556 475.761778 739.555556 350.663111c0-26.680889-56.888889-25.031111-56.888889-25.031111L682.666667 25.486222c0-7.338667-6.997333-14.279111-14.734222-19.057778-7.736889-4.778667-19.228444-6.826667-29.240889-5.632C635.619556 1.137778 561.038222 9.955556 479.744 36.750222 404.252444 61.610667 341.845333 115.996444 341.845333 115.996444S341.333333 183.296 341.333333 189.781333l0 135.907556c-56.888889 0-56.888889 11.207111-56.888889 25.031111l0 125.098667c0 0 0 11.207111 0 25.031111l0 497.720889C284.444444 1012.337778 293.888 1024 313.002667 1024l399.075556 0C731.192889 1024 739.555556 1012.337778 739.555556 998.513778L739.555556 500.792889C739.555556 486.968889 739.555556 475.761778 739.555556 475.761778L739.555556 475.761778zM398.222222 136.305778c0-12.231111 69.461333-38.229333 117.020444-53.930667C553.016889 69.916444 625.777778 61.667556 625.777778 56.661333L625.777778 341.333333 398.222222 341.333333 398.222222 136.078222 398.222222 136.305778zM341.333333 398.222222l341.333333 0 0 113.777778L341.333333 512 341.333333 398.222222 341.333333 398.222222zM682.666667 967.111111 341.333333 967.111111l0-398.222222 341.333333 0L682.666667 967.111111 682.666667 967.111111zM677.489778 973.539556" /></svg>