<?xml version="1.0" standalone="no"?><!DOCTYPE svg PUBLIC "-//W3C//DTD SVG 1.1//EN" "http://www.w3.org/Graphics/SVG/1.1/DTD/svg11.dtd"><svg class="icon" width="200px" height="200.00px" viewBox="0 0 1024 1024" version="1.1" xmlns="http://www.w3.org/2000/svg"><path d="M679.969061 803.02419c-6.618744-4.194532-15.173584-3.991917-21.588691 0.565888-53.741995 38.249139-116.966968 58.544371-182.814676 58.544371-65.844637 0-129.110543-20.295232-182.852538-58.544371-6.415107-4.557806-14.927991-4.840238-21.587668-0.604774-6.656607 4.196579-10.126638 12.023848-8.755408 19.770276l24.048719 135.888923c1.612731 9.282411 9.640568 16.020882 19.042705 16.020882l340.211449 0c9.358135 0 17.429974-6.738471 19.042705-16.020882l24.007787-135.888923C690.053744 815.009152 686.665577 807.181883 679.969061 803.02419z"  /><path d="M271.083533 215.767182c3.15076 2.016937 6.780427 3.065825 10.413164 3.065825 3.953032 0 7.866155-1.251503 11.216459-3.63069 53.821813-38.291095 117.046786-58.544371 182.852538-58.544371 65.848731 0 129.073704 20.253276 182.814676 58.544371 6.415107 4.559852 14.969946 4.800329 21.667485 0.564865 6.617721-4.196579 10.084683-12.063757 8.634658-19.851117l-24.006763-130.686435c-1.654686-9.197476-9.644661-15.896038-19.001773-15.896038L305.461505 49.333592c-9.361205 0-17.35118 6.698562-19.042705 15.896038l-23.965831 130.686435C260.997827 203.702402 264.42795 211.570603 271.083533 215.767182z"  /><path d="M593.584622 497.795487 482.263234 497.795487 482.263234 339.39178c0-9.602705-7.745405-17.390066-17.34811-17.390066s-17.429974 7.78736-17.429974 17.390066L447.485149 520.995885c0 3.671623 1.209548 7.060813 3.146667 9.844206 3.712555 7.869225 11.618619 13.31526 20.902052 13.31526l122.050754 0c12.82919 0 23.200398-10.409071 23.200398-23.159466C616.78502 508.206604 606.413811 497.795487 593.584622 497.795487z"  /><path d="M843.860758 461.444581c-0.647753-0.929162-1.532913-1.49505-2.422166-1.49505l-44.706201 0c-0.927115 0-1.774413 0.565888-2.419096 1.49505-0.644683 0.845251-0.968048 2.057869-0.968048 3.348258l0 16.219403-17.47193 0c-14.32117-151.667282-142.345985-270.692119-297.725822-270.692119-164.940586 0-299.055097 134.157489-299.055097 299.097052S313.20691 808.473295 478.146473 808.473295c155.379836 0 283.404652-119.024837 297.725822-270.650163l17.47193 0 0 16.179494c0 1.291412 0.323365 2.541893 0.968048 3.388167 0.644683 0.929162 1.49198 1.414209 2.419096 1.414209l44.706201 0c0.889253 0 1.774413-0.485047 2.422166-1.372254 0.644683-0.887206 1.047866-2.13871 1.047866-3.430122l0-89.208764C844.909647 463.501426 844.505441 462.289831 843.860758 461.444581zM478.146473 743.918024c-129.272225 0-234.416937-105.228623-234.416937-234.500848 0-129.314181 105.144712-234.539734 234.416937-234.539734 129.356137 0 234.542804 105.225553 234.542804 234.539734C712.6903 638.689401 607.502609 743.918024 478.146473 743.918024z"  /></svg>