<?xml version="1.0" standalone="no"?><!DOCTYPE svg PUBLIC "-//W3C//DTD SVG 1.1//EN" "http://www.w3.org/Graphics/SVG/1.1/DTD/svg11.dtd"><svg class="icon" width="200px" height="133.25px" viewBox="0 0 1537 1024" version="1.1" xmlns="http://www.w3.org/2000/svg"><path d="M1533.46944 291.01824c-0.31232-4.87936-2.65728-7.94112-7.36512-9.152-3.32288-0.85248-6.62272-1.792-9.96864-2.31424-47.86688-7.51616-95.79008-14.85312-144.1408-18.2016-38.6176-2.69056-77.28384-4.39296-115.98848-6.13376-74.49088-3.33312-148.8256-1.70496-222.90176 7.66208-45.26336 5.7216-90.06336 13.9136-133.58848 27.9808-21.99552 7.10912-43.61216 15.40608-65.64096 22.39744-34.36544 10.88-69.62944 15.77984-105.30048 9.088-21.44512-4.02432-42.5984-10.15808-63.39328-16.88832-37.632-12.1728-75.23584-24.16896-114.27072-31.34464-75.89632-14.02368-152.37376-20.44928-223.67744-19.6864-58.12736 0.0896-110.34112 2.07104-162.3168 8.3072-42.63424 5.12-85.20448 10.81344-127.7824 16.58624-9.0496 1.24928-17.89184 3.90912-26.752 6.24384-4.73856 1.2416-7.87456 4.39296-8.03072 9.66656-0.82176 25.14432-1.69728 50.28352-2.3296 75.456-0.08704 3.78368 0.83712 7.6032 1.41824 11.38432 0.48128 3.19744 2.22464 5.40928 5.28896 6.75328 3.24864 1.41824 6.58944 2.8416 9.47712 4.84096 13.98016 9.7408 20.71552 24.48128 26.07104 39.78496 3.81952 10.93888 6.28736 22.33088 9.45152 33.48224 1.96864 6.95552 4.5696 13.7472 6.14144 20.76672 7.38048 32.82688 14.24896 65.8048 21.80864 98.58816 7.2064 31.2704 16.6016 61.84704 31.55968 90.46016 16.70144 31.96928 40.51712 56.45568 74.32192 70.528 20.46464 8.51968 41.74592 13.95456 63.56992 17.42592 39.10912 6.1824 78.44608 6.94016 117.89824 4.07552 39.93856-2.88512 79.37792-8.93184 117.80352-20.544 28.52352-8.64768 55.488-20.66944 78.3872-40.15616 34.944-29.79072 63.0784-65.16992 84.68224-105.74848 21.59104-40.5248 36.736-83.61472 50.31936-127.30112 3.92192-12.53888 7.6032-25.15968 12.14464-37.47072 6.7072-18.13504 19.69408-29.34528 39.04768-32.32 6.1568-0.96 12.53888-1.21856 18.78272-0.85248 14.51776 0.85248 28.48 3.9168 38.16192 16.0384 4.21632 5.2736 8.11776 11.11552 10.83136 17.28256 5.29664 12.00896 10.32192 24.21248 14.25152 36.69248 17.05728 53.99808 39.69024 105.4464 68.3008 154.3168 23.72864 40.60928 55.0272 73.41312 96.52992 96.04864 29.3376 16.0128 60.72832 26.20928 93.4144 32.57344 49.1648 9.536 98.81856 11.8784 148.73088 9.67936 30.17728-1.30304 60.0064-5.14304 89.02144-13.81632 29.7728-8.93184 55.95136-23.43936 75.52256-48.28928 12.66176-16.04352 22.05184-33.94048 29.77024-52.75136 16.27904-39.65184 26.73664-81.01376 36.1856-122.688 4.63104-20.38272 9.39776-40.74496 14.36928-61.06368 2.60096-10.61888 5.87008-21.06112 8.81408-31.58016 2.74688-9.85856 5.0816-19.85536 11.328-28.38272 6.272-8.56576 12.68736-16.96 23.15264-20.67968 4.5696-1.63072 6.88128-4.81024 7.86176-9.14688 0.75008-3.34848 1.5616-6.76352 1.5616-10.12992 0.02816-15.04256 0.02816-30.08768-0.40192-45.10208C1535.26144 312.5632 1534.14016 301.81632 1533.46944 291.01824M64.28288 338.63424c-16.27648 0-29.45536-3.23072-29.45536-7.2192 0-4.02432 13.17888-7.2576 29.45536-7.2576 16.24064 0 29.40672 3.24096 29.40672 7.2576C93.68704 335.39584 80.52352 338.63424 64.28288 338.63424M633.0688 497.71008c-10.31424 43.9168-27.328 85.07392-50.0992 123.94752-12.42624 21.24288-26.53184 41.1264-44.42624 58.18112-23.61088 22.54336-52.03712 35.83744-83.23584 44.0192-63.17056 16.52992-127.05792 20.66432-191.68512 10.9824-12.6592-1.90976-25.14432-5.22752-37.60128-8.37888-25.65376-6.58944-45.11744-21.5296-59.92192-43.55328-16.36608-24.39424-26.41152-51.19488-33.14944-79.488-8.78592-36.93568-13.72928-74.48064-17.45408-112.22016-2.18368-21.89824-1.76384-43.6992 0.94208-65.47968 1.35936-10.95168 2.24-22.08 4.7232-32.8064 8.78592-38.14656 32.37376-62.45376 70.29248-72.39936 34.65728-9.07264 69.96224-14.42048 105.59488-17.31328 26.43712-2.16832 52.9408-3.264 70.04928-4.2624 60.82304 0.76544 111.8976 4.64384 162.14016 16.22784 20.52352 4.70016 41.30816 8.93184 60.08064 18.93632 9.23392 4.90752 18.19648 10.74688 26.2528 17.3952 13.312 10.97472 20.10368 25.93024 22.94784 42.83392 5.91616 34.88256 2.54976 69.27104-5.44256 103.38048M1420.11776 481.42848c-1.32864 53.02528-10.26048 104.79616-29.16352 154.56-7.6288 20.1472-18.0096 38.76608-33.6128 53.88032-17.40288 16.87296-39.05024 25.8048-62.05696 32.0512-28.9024 7.83104-58.47296 9.71264-88.23552 9.96864-44.95104 0.40448-89.2288-5.20192-133.12768-14.53824-43.50208-9.2416-78.18752-32.01792-105.78432-66.49856-35.37664-44.224-58.04032-94.40256-70.72512-149.32736-5.87008-25.37216-10.816-50.9056-10.17344-77.1072 0.28416-11.2768 1.44384-22.66368 3.4944-33.77664 5.05344-27.6864 22.05184-45.76256 47.65696-56.17152 25.72544-10.40384 52.63616-16.76544 79.7696-22.14144 30.20544-5.99296 60.66944-10.47296 91.39456-12.45952 23.99232-1.55648 48.04096-2.20928 64.30976-2.91584 64.36608 3.15136 120.64 7.88992 175.34976 23.49824 10.06592 2.85952 19.6864 7.44192 29.19168 11.90656 9.02144 4.21888 15.95392 11.13088 20.43392 20.07552 4.94592 9.89696 10.03008 19.8016 13.93664 30.10304 4.55936 12.07808 5.57568 25.02912 6.06464 37.84448 0.7808 20.3392 1.79456 40.72448 1.26976 61.03552M1470.90048 338.63424c-16.24064 0-29.41952-3.23072-29.41952-7.2192 0-4.02432 13.17888-7.2576 29.41952-7.2576 16.2432 0 29.41952 3.24096 29.41952 7.2576C1500.32 335.39584 1487.14112 338.63424 1470.90048 338.63424L1470.90048 338.63424zM1470.90048 338.63424" /></svg>