<?xml version="1.0" standalone="no"?><!DOCTYPE svg PUBLIC "-//W3C//DTD SVG 1.1//EN" "http://www.w3.org/Graphics/SVG/1.1/DTD/svg11.dtd"><svg class="icon" width="200px" height="200.00px" viewBox="0 0 1024 1024" version="1.1" xmlns="http://www.w3.org/2000/svg"><path d="M848.93696 341.632h-91.61728l17.664-17.71008c50.1504-50.15552 50.1504-131.41504 0-181.51424-50.15552-50.1504-131.41504-50.1504-181.56544 0L515.8912 219.8784 438.69184 142.67392c-49.78176-49.78176-130.50368-49.78176-180.28544 0-49.77664 49.77664-49.77664 130.50368 0 180.28032l18.67264 18.67264H175.06816c-40.23296 0-72.832 32.59904-72.832 72.832v127.4624c0 40.22272 32.59904 72.832 72.832 72.832v236.73344c0 40.22272 32.59904 72.832 72.87808 72.832h528.10752c40.22272 0 72.87808-32.60416 72.87808-72.832v-236.73344c40.22784 0 72.832-32.60416 72.832-72.832V414.464c0-40.23296-32.59904-72.832-72.82688-72.832zM297.0368 181.30432c28.43648-28.4416 74.53696-28.4416 103.02976 0L477.27104 258.5088l-0.5888 0.5888 38.90176 38.89152 116.736-116.6848c28.65152-28.65152 75.12064-28.65152 103.77728 0 28.65152 28.65152 28.65152 75.06944 0 103.72096l-56.61184 56.61184H354.33984L297.0368 284.32896c-28.4416-28.43648-28.4416-74.58816 0-103.02464zM494.01856 869.6832H284.3392c-20.11648 0-54.63552-16.2816-54.63552-36.44416v-273.12128h-36.38272a36.38784 36.38784 0 0 1-36.44416-36.44416V432.65536a36.42368 36.42368 0 0 1 36.44416-36.44416h300.70272v473.472h-0.00512z m373.10976-346.0096a36.42368 36.42368 0 0 1-36.44416 36.44416h-36.38272v273.12128c0 20.16256-34.51904 36.44416-54.64064 36.44416h-191.48288V396.2112h282.51136a36.4544 36.4544 0 0 1 36.44416 36.44416v91.01824h-0.00512z" fill="#2c2c2c" /></svg>