<?xml version="1.0" standalone="no"?><!DOCTYPE svg PUBLIC "-//W3C//DTD SVG 1.1//EN" "http://www.w3.org/Graphics/SVG/1.1/DTD/svg11.dtd"><svg class="icon" width="200px" height="200.00px" viewBox="0 0 1024 1024" version="1.1" xmlns="http://www.w3.org/2000/svg"><path d="M451.3 686.7h25l-38.6-166.6c-2.2-9.7 3.8-19.3 13.5-21.6 9.7-2.2 19.3 3.8 21.6 13.5l39.7 171.4L552.1 512c2.2-9.7 11.9-15.7 21.6-13.5 9.7 2.2 15.7 11.9 13.5 21.6l-38.6 166.6h25l161.1-272.8H290.2l161.1 272.8zM530.4 722.7v120.2c0 9.9-8 18-18 18-9.9 0-18-8-18-18V722.7h-36.9l-17.3 202.9h144.3l-17.3-202.9h-36.8z" fill="#FDB9D0" /><path d="M776.9 381.6c20.3-20.1 32.9-48 32.9-78.7 0-40.2-21.9-77.4-57.1-97.1-8.6-4.8-19.4-1.8-24.3 6.7L698.7 264l-13-22.5c19.8-20.6 31-47.8 31-76.9 0-40.2-21.9-77.4-57.1-97.1-8.6-4.8-19.4-1.8-24.3 6.7l-29.7 51.5-29.7-51.5c-4.9-8.5-15.7-11.5-24.3-6.7-16.1 9-29.3 21.7-39 36.7-9.7-15-23-27.7-39.1-36.7-8.6-4.8-19.4-1.8-24.3 6.7l-29.7 51.5-29.7-51.5c-4.9-8.5-15.7-11.5-24.3-6.7-35.2 19.6-57 56.8-57 97.1 0 28.9 11.2 56.4 31 77l-13 22.5-29.7-51.5c-4.9-8.5-15.7-11.5-24.3-6.7-35.2 19.6-57 56.8-57 97.1 0 30.8 12.6 58.6 32.8 78.7-1.9 1.5-3.6 3.3-4.8 5.5-3.2 5.6-3.2 12.5 0.1 18.1L423 709.1 402.8 942c-0.4 5 1.3 10 4.7 13.7 3.4 3.7 8.2 5.8 13.2 5.8h183.5c5 0 9.8-2.1 13.2-5.8 3.4-3.7 5.1-8.7 4.7-13.7l-19.8-233.1 179.4-303.8c3.3-5.6 3.3-12.4 0.1-18.1-1.3-2.2-3-4-4.9-5.4zM554.6 109.2l35.4 61.3c3.2 5.6 9.1 9 15.6 9 6.4 0 12.4-3.4 15.6-9l35.4-61.3c15.2 14.1 24.2 34 24.2 55.2 0 16.3-5.2 31.7-14.5 44.4-5.5-5.6-14.3-7.1-21.5-3.1-16.1 9-29.4 21.6-39.1 36.6-9.7-14.9-23-27.6-39.1-36.6-7.2-4-16-2.5-21.5 3.1-9.4-12.8-14.5-28.2-14.5-44.4-0.2-21.2 8.8-41.1 24-55.2zM440.3 925.6l17.3-202.9h36.9v120.2c0 9.9 8 18 18 18 9.9 0 18-8 18-18V722.7h36.9l17.3 202.9H440.3z m133.3-238.9h-25l38.6-166.6c2.2-9.7-3.8-19.3-13.5-21.6-9.7-2.2-19.3 3.8-21.6 13.5l-39.7 171.4L472.8 512c-2.2-9.7-11.9-15.7-21.6-13.5-9.7 2.2-15.7 11.9-13.5 21.6l38.6 166.6h-25L290.2 413.9h444.4l-161 272.8zM407.9 378c4.2-4.6 8-9.5 11.4-14.7 3.4 5.2 7.2 10.1 11.4 14.7h-22.8z m186.2 0c4.2-4.6 8-9.5 11.4-14.7 3.4 5.2 7.2 10.1 11.4 14.7h-22.8z m-81.6-153c3.8 5.8 8.2 11.2 13 16.3l-13.1 22.6-13-22.6c4.9-5 9.3-10.5 13.1-16.3z m-15.6 83.9c3.2 5.6 9.1 9 15.6 9 6.4 0 12.4-3.4 15.6-9l35.4-61.3c15.2 14.1 24.2 34 24.2 55.2 0 41.4-33.7 75.1-75.1 75.1-41.4 0-75.1-33.7-75.1-75.1 0-21.2 9-41.1 24.2-55.2l35.2 61.3zM368.4 109.2l35.4 61.3c3.2 5.6 9.1 9 15.6 9 6.4 0 12.4-3.4 15.6-9l35.4-61.3c15.2 14.1 24.2 34 24.2 55.2 0 16.3-5.2 31.7-14.5 44.4-5.5-5.6-14.3-7.1-21.5-3.1-16.1 9-29.4 21.7-39.1 36.6-9.7-15-23-27.7-39.1-36.6-7.2-4-16-2.5-21.5 3.1-9.4-12.8-14.5-28.2-14.5-44.4-0.2-21.2 8.8-41.1 24-55.2z m-93.1 138.4l35.4 61.3c3.2 5.6 9.1 9 15.6 9 6.4 0 12.4-3.4 15.6-9l35.4-61.3c15.2 14.1 24.2 34 24.2 55.2 0 41.4-33.7 75.1-75.1 75.1s-75.1-33.7-75.1-75.1c-0.2-21.2 8.7-41.1 24-55.2zM698.7 378c-41.4 0-75.1-33.7-75.1-75.1 0-21.2 9-41.1 24.2-55.2l35.4 61.3c3.2 5.6 9.1 9 15.6 9 6.4 0 12.4-3.4 15.6-9l35.4-61.3c15.2 14.1 24.2 34 24.2 55.2-0.2 41.3-33.9 75.1-75.3 75.1z" fill="#3EBAC4" /></svg>