<?xml version="1.0" standalone="no"?><!DOCTYPE svg PUBLIC "-//W3C//DTD SVG 1.1//EN" "http://www.w3.org/Graphics/SVG/1.1/DTD/svg11.dtd"><svg class="icon" width="200px" height="200.00px" viewBox="0 0 1024 1024" version="1.1" xmlns="http://www.w3.org/2000/svg"><path d="M130.404121 230.210344h694.597558V162.201369H122.37714c-19.008989 0-34.217625 15.201411-34.217625 33.784125 0 19.016214 15.208636 34.6439 34.217625 34.217625h8.026981z m727.543582 242.926353h111.546857v177.86518h-111.546857c-32.953249 0-59.974769-27.03597-59.974769-59.974769V533.566641c0-33.365074 27.028745-60.429944 59.974769-60.429944z m35.474776 38.899428c27.476695 0 50.286037 22.390291 50.286037 50.235462 0 27.476695-22.831017 49.903112-50.286037 49.903111-27.88852 0-50.278812-22.426416-50.278811-49.903111a50.141537 50.141537 0 0 1 50.278811-50.235462z m-26.183419-281.825781h102.2555v204.070274h-122.124264c-47.757285 0-86.627813 38.877753-86.627814 86.613364v82.762435c0 47.34546 38.870528 86.223213 86.627814 86.223213h122.124264v204.070275H121.091089c-39.708629 0-71.802103-32.071798-72.235603-71.383053V196.801919v-0.859775c0-39.686954 32.526974-71.809328 72.235603-71.809328h746.147971v106.077528z"  /></svg>