<?xml version="1.0" standalone="no"?><!DOCTYPE svg PUBLIC "-//W3C//DTD SVG 1.1//EN" "http://www.w3.org/Graphics/SVG/1.1/DTD/svg11.dtd"><svg class="icon" width="200px" height="200.00px" viewBox="0 0 1024 1024" version="1.1" xmlns="http://www.w3.org/2000/svg"><path d="M935.757 278.552c0-17.156-13.894-31.074-31.051-31.074h-128.334c-37.017-150.178-141.767-258.864-265.122-258.864-123.381 0-228.129 108.686-265.149 258.865h-128.334c-17.156 0-31.049 13.918-31.049 31.074 0 17.133 13.894 31.051 31.049 31.051h117.435c-2.102 18.631-3.528 37.549-3.528 56.953 0 58.911 10.318 114.511 28.174 164.264-88.703 21.166-154.912 100.883-154.912 195.943v276.577c0 17.157 13.894 31.075 31.049 31.075h750.5c17.157 0 31.074-13.918 31.074-31.075v-276.577c0-95.060-66.233-174.777-154.935-195.943 17.857-49.753 28.174-105.353 28.174-164.264 0-19.404-1.426-38.322-3.529-56.953h117.436c17.156-0.001 31.049-13.919 31.049-31.052zM728.677 366.556c0 57.847-10.923 111.927-29.699 158.586-3.284 8.143-7.056 15.778-10.775 23.462-25.036-80.318-90.784-132.029-176.951-132.029-86.192 0-151.941 51.711-176.975 132.029-3.722-7.684-7.491-15.319-10.776-23.462-18.751-46.66-29.697-100.739-29.697-158.586 0-19.475 1.401-38.444 3.722-56.953h427.431c2.343 18.508 3.721 37.478 3.721 56.953zM637.216 623.682c0 70.219-77.42 174.146-125.964 229.988-48.546-55.843-125.988-159.771-125.988-229.988 0-88.051 49.462-144.957 125.988-144.957 76.525 0 125.964 56.905 125.964 144.957zM511.251 50.739c90.88 0 168.806 81.479 201.26 196.74h-402.545c32.454-115.261 110.38-196.74 201.284-196.74zM855.438 726.764v245.525h-688.375v-245.525c0-69.834 51.615-127.658 118.668-137.756 11.525 21.262 24.671 40.74 39.143 58.307 16.601 118.234 148.123 257.608 164.024 274.064 5.845 6.065 13.917 9.495 22.352 9.495 8.434 0 16.48-3.431 22.328-9.495 15.898-16.456 147.445-155.855 164.046-274.087 14.447-17.543 27.619-37.020 39.12-58.282 67.054 10.1 118.693 67.922 118.693 137.756zM372.068 417.131c19.065 0 34.529-15.443 34.529-34.529 0-19.041-15.466-34.506-34.529-34.506-19.065 0-34.506 15.465-34.506 34.506 0 19.089 15.441 34.529 34.506 34.529zM650.408 417.131c19.066 0 34.531-15.443 34.531-34.529 0-19.041-15.465-34.506-34.531-34.506-19.039 0-34.505 15.465-34.505 34.506 0 19.089 15.466 34.529 34.505 34.529zM480.176 584.004v13.774c0 17.156 13.894 31.075 31.075 31.075 17.156 0 31.051-13.919 31.051-31.075v-13.774c0-17.156-13.895-31.074-31.051-31.074-17.182 0-31.075 13.918-31.075 31.074z" /></svg>