<?xml version="1.0" standalone="no"?><!DOCTYPE svg PUBLIC "-//W3C//DTD SVG 1.1//EN" "http://www.w3.org/Graphics/SVG/1.1/DTD/svg11.dtd"><svg class="icon" width="200px" height="167.46px" viewBox="0 0 1223 1024" version="1.1" xmlns="http://www.w3.org/2000/svg"><path d="M212.06552068903045 1081.9933677841746V1074.3764010344328c0-223.43104881090014 180.26823278001277-403.6992815909129 403.6992815909129-403.6992834976343S1019.4640857775781 850.9453503168111 1019.4640857775781 1074.3764010344328v7.616966749741907h63.47472990582765V1074.3764010344328c0-205.65812512368808-132.0274382803903-378.3093892472376-314.83466124813134-441.7841210597865 104.09855765570816-55.857763156085724 177.7292444990059-165.0342973738076 177.7292444990059-291.9837571854629 0-182.80722296774098-147.2613736865955-330.0685947476152-330.0685966543366-330.0685966543366s-330.0685947476152 147.2613736865955-330.0685947476152 330.0685966543366c0 126.9494598116553 71.09169665556954 236.12599593609838 177.7292444990059 291.9837571854629-182.80722296774098 63.47472990582765-314.83466124813134 236.12599593609838-314.83466124813134 441.7841210597865v7.616966749741907H212.06552068903045z m137.1054167491254-741.3848449949915c0-147.2613736865955 119.33249306191337-266.59386484178754 266.59386484178754-266.5938667485089s266.59386484178754 119.33249306191337 266.5938667485089 266.5938667485089-119.33249306191337 266.59386484178754-266.5938667485089 266.59386484178754-266.59386484178754-119.33249306191337-266.59386484178754-266.59386484178754z" fill="#2c2c2c" /></svg>