<?xml version="1.0" standalone="no"?><!DOCTYPE svg PUBLIC "-//W3C//DTD SVG 1.1//EN" "http://www.w3.org/Graphics/SVG/1.1/DTD/svg11.dtd"><svg class="icon" width="200px" height="195.05px" viewBox="0 0 1050 1024" version="1.1" xmlns="http://www.w3.org/2000/svg"><path d="M533.353026 1014.974359c-138.955487 0-252.01559-113.060103-252.01559-252.022154 0-123.300103 88.963282-226.185846 206.073436-247.853949L323.236103 394.771692a16.882872 16.882872 0 0 1-6.078359-18.891487 16.882872 16.882872 0 0 1 16.068923-11.657846h400.285538c7.318974 0 13.804308 4.686769 16.062359 11.657846a16.896 16.896 0 0 1-6.071795 18.891487L579.314872 515.104821c117.110154 21.668103 206.073436 124.553846 206.073436 247.853948-0.006564 138.955487-113.060103 252.01559-252.035282 252.01559z m-0.085334-470.245744c-120.274051 0.032821-218.112 97.929846-218.112 218.22359 0 120.326564 97.883897 218.197333 218.197334 218.197333 120.326564 0 218.210462-97.870769 218.210461-218.197333 0-120.293744-97.831385-218.190769-218.125128-218.22359h-0.170667zM384.899282 398.047179l148.453744 108.8 148.466871-108.8H384.899282z m148.453744 563.350975c-109.410462 0-198.426256-89.015795-198.426257-198.439385S423.942564 564.512821 533.353026 564.512821c109.430154 0 198.439385 89.022359 198.439384 198.439384 0 109.430154-89.009231 198.445949-198.439384 198.445949z m0-363.060513c-90.76841 0-164.608 73.852718-164.608 164.614564 0 90.76841 73.83959 164.621128 164.608 164.621128 90.76841 0 164.621128-73.852718 164.621128-164.621128 0-90.761846-73.852718-164.614564-164.621128-164.614564zM323.085128 359.266462a16.902564 16.902564 0 0 1-12.622769-28.173129l77.357949-86.67241c0.708923-0.827077 1.516308-1.621333 2.409025-2.317128l0.813949-0.590769h0.013128c2.973538-2.080821 6.866051-2.907897 9.773949-3.006359h259.006359a16.869744 16.869744 0 0 1 11.953231 4.949333L755.593846 327.286154a16.928821 16.928821 0 0 1-11.821949 28.868923l-420.555487 3.111385h-0.131282z m76.314257-77.02318l-38.294975 42.902974 69.494154-0.492307-31.199179-42.410667z m131.820307-0.426667l-32.735179 42.345026 70.222769-0.525128-37.48759-41.819898z m129.115898-1.982359l-32.728616 43.369026 75.52-0.564513-42.791384-42.804513z m-226.238359-7.502769l30.083282 40.887795 31.612718-40.887795h-61.696z m134.03241 0l30.129231 33.588513 25.363692-33.588513h-55.492923z m118.501744-41.878974a16.961641 16.961641 0 0 1-11.881026-4.850872 16.909128 16.909128 0 0 1-0.157538-23.91959l108.616205-110.191589a16.902564 16.902564 0 0 1 24.077128 23.722666l-108.616205 110.185026c-3.301744 3.367385-7.68 5.054359-12.038564 5.054359z m-308.834462-1.522872a16.863179 16.863179 0 0 1-11.854769-4.857436l-94.660923-93.144615a16.902564 16.902564 0 0 1-0.196923-23.913026 16.869744 16.869744 0 0 1 23.913025-0.196923l94.660923 93.144615a16.902564 16.902564 0 0 1-11.861333 28.967385z m152.864821-15.524103h-0.328206a16.909128 16.909128 0 0 1-16.580923-17.237333l3.104821-158.280205a16.922256 16.922256 0 0 1 16.909128-16.580923h0.334769a16.915692 16.915692 0 0 1 16.580923 17.237333l-3.111384 158.280205a16.922256 16.922256 0 0 1-16.909128 16.580923z"  /></svg>