<?xml version="1.0" standalone="no"?><!DOCTYPE svg PUBLIC "-//W3C//DTD SVG 1.1//EN" "http://www.w3.org/Graphics/SVG/1.1/DTD/svg11.dtd"><svg class="icon" width="200px" height="200.00px" viewBox="0 0 1024 1024" version="1.1" xmlns="http://www.w3.org/2000/svg"><path d="M942.202531 239.802598 773.103228 239.802598l-98.305957-98.543364c-0.122797-0.081864-0.199545-0.200568-0.319272-0.323365l-0.200568-0.159636c-14.776542-14.612813-35.057447-23.63735-57.459666-23.63735L412.379607 117.138884c-23.760147 0-44.919049 10.30367-59.892065 26.434046l-0.081864-0.2415-96.270601 96.470145L83.559603 239.801575c-45.160549 0-81.775468 36.614919-81.775468 81.775468l0 490.652809c0 45.160549 36.614919 81.775468 81.775468 81.775468l858.642928 0c45.160549 0 81.775468-36.614919 81.775468-81.775468L1023.977999 321.578066C1023.977999 276.417517 987.36308 239.802598 942.202531 239.802598zM983.090776 812.230875c0 22.520923-18.3663 40.888246-40.888246 40.888246L83.559603 853.119121c-22.520923 0-40.888246-18.3663-40.888246-40.888246L42.671357 321.578066c0-22.520923 18.3663-40.888246 40.888246-40.888246l172.574451 0 16.931624 0 12.016685-11.979846 49.473785-49.588395 1.038656 2.993171 46.914496-50.749848c7.949043-8.627495 18.566868-13.337773 29.868261-13.337773l204.439182 0c10.82351 0 21.045315 4.195555 29.030174 12.139481l98.305957 98.506525 11.975752 12.016685 16.972557 0 169.099303 0c22.520923 0 40.888246 18.3663 40.888246 40.888246L983.08873 812.230875z"  /><path d="M512.881578 280.68982c-146.778948 0-265.770016 118.991068-265.770016 265.729084 0 146.823973 118.991068 265.810948 265.770016 265.810948 146.783041 0 265.770016-118.986975 265.770016-265.810948C778.651594 399.681912 659.664619 280.68982 512.881578 280.68982zM512.881578 771.343653c-124.020618 0-224.882793-100.903108-224.882793-224.923726 0-123.979686 100.862175-224.841861 224.882793-224.841861S737.763348 422.440242 737.763348 546.419927C737.763348 670.440545 636.902196 771.343653 512.881578 771.343653z"  /><path d="M512.881578 362.466312c-101.659331 0-183.994548 82.335217-183.994548 183.953615 0 101.622492 82.335217 184.03548 183.994548 184.03548s183.994548-82.412988 183.994548-184.03548C696.876126 444.801529 614.540909 362.466312 512.881578 362.466312zM512.881578 689.568185c-78.901001 0-143.107325-64.206324-143.107325-143.148257 0-78.860069 64.206324-143.066393 143.107325-143.066393s143.107325 64.206324 143.107325 143.066393C655.98788 625.361861 591.782579 689.568185 512.881578 689.568185z"  /></svg>