<?xml version="1.0" standalone="no"?><!DOCTYPE svg PUBLIC "-//W3C//DTD SVG 1.1//EN" "http://www.w3.org/Graphics/SVG/1.1/DTD/svg11.dtd"><svg class="icon" width="200px" height="200.00px" viewBox="0 0 1024 1024" version="1.1" xmlns="http://www.w3.org/2000/svg"><path d="M371.712 263.168m-52.736 0a52.736 52.736 0 1 0 105.472 0 52.736 52.736 0 1 0-105.472 0Z" fill="#CDCECE" /><path d="M478.208 200.704m-49.152 0a49.152 49.152 0 1 0 98.304 0 49.152 49.152 0 1 0-98.304 0Z" fill="#CDCECE" /><path d="M509.44 307.712m-49.152 0a49.152 49.152 0 1 0 98.304 0 49.152 49.152 0 1 0-98.304 0Z" fill="#CDCECE" /><path d="M382.976 391.68m-40.448 0a40.448 40.448 0 1 0 80.896 0 40.448 40.448 0 1 0-80.896 0Z" fill="#CDCECE" /><path d="M476.16 456.704m-34.304 0a34.304 34.304 0 1 0 68.608 0 34.304 34.304 0 1 0-68.608 0Z" fill="#CDCECE" /><path d="M615.424 216.576m-41.472 0a41.472 41.472 0 1 0 82.944 0 41.472 41.472 0 1 0-82.944 0Z" fill="#CDCECE" /><path d="M658.944 318.464m-37.376 0a37.376 37.376 0 1 0 74.752 0 37.376 37.376 0 1 0-74.752 0Z" fill="#CDCECE" /><path d="M587.776 406.528m-41.472 0a41.472 41.472 0 1 0 82.944 0 41.472 41.472 0 1 0-82.944 0Z" fill="#CDCECE" /><path d="M369.664 445.952c-18.944 0-38.912-7.68-44.032-29.696-2.56-12.288-5.12-35.84 7.168-54.272 7.68-11.776 20.48-19.456 36.864-22.528 13.824-2.56 35.328-0.512 53.76 12.8 12.8 9.728 29.184 28.672 33.792 65.536 0.512 3.584-2.048 6.656-5.632 7.168-3.584 0.512-6.656-2.048-7.168-5.632-3.072-26.112-12.8-45.056-28.672-56.832-14.848-11.264-32.768-12.8-44.032-10.752-13.312 2.56-22.528 8.192-28.672 16.896-10.24 15.36-7.168 35.84-5.12 44.544 5.12 22.528 34.304 19.968 39.936 18.944 8.704-1.536 14.848-5.632 18.432-11.776 4.096-7.168 4.096-16.896 0.512-25.088-2.56-5.632-6.656-8.704-10.752-10.24-9.216-2.048-19.968 5.632-20.48 5.632-3.072 2.048-6.656 1.536-9.216-1.536-2.048-3.072-1.536-6.656 1.536-9.216 0.512-0.512 15.36-11.776 30.72-7.68 8.192 2.048 14.848 7.68 19.456 16.896 5.12 11.776 5.12 26.112-1.024 36.352-4.096 7.168-11.776 15.872-27.648 18.432-2.56 2.048-6.144 2.048-9.728 2.048z" fill="#425960" /><path d="M381.44 340.992c-5.12 0-10.24-0.512-15.872-1.536-33.28-8.192-71.168-24.576-74.24-79.872 0-35.84 19.456-56.32 57.856-59.904h0.512c11.264 0 31.744 2.048 46.08 16.896 9.216 9.728 13.824 22.528 13.312 38.4v1.024c-5.12 24.576-20.992 39.424-44.544 39.936-10.752 0-27.136-10.24-32.256-23.552-2.56-6.656-5.12-20.48 10.24-34.816 2.56-2.56 6.656-2.56 9.216 0s2.56 6.656 0 9.216c-7.168 7.168-9.728 13.824-7.168 20.48 3.584 9.728 15.36 15.36 20.48 15.36 22.528-0.512 29.696-18.432 31.744-29.184 0.512-11.776-3.072-21.504-9.728-28.16-11.264-11.776-28.672-12.8-36.352-12.8-40.448 4.096-46.08 27.136-46.08 47.104 2.56 46.08 32.256 59.904 64 67.584 39.936 7.68 69.12-22.528 69.632-22.528 2.56-2.56 6.656-2.56 9.216 0s2.56 6.656 0 9.216c-1.536 0.512-27.648 27.136-66.048 27.136zM469.504 512c-8.704 0-19.456-2.048-27.648-8.704-10.752-8.704-15.36-22.528-14.848-41.984 0.512-10.752 4.096-30.208 19.456-42.496 11.264-9.216 26.624-11.776 45.056-8.704h0.512c29.184 7.68 59.904 21.504 54.784 86.528-0.512 3.584-3.072 6.144-6.656 5.632-3.584-0.512-6.144-3.584-5.632-6.656 4.608-55.296-18.432-66.048-45.056-73.216-14.848-2.56-26.624-0.512-34.816 6.144-12.288 9.728-14.336 26.112-14.848 32.768-0.512 14.848 3.072 25.088 10.24 31.232 10.24 8.704 26.112 6.144 32.256 4.608 6.656-1.024 10.752-4.096 12.8-8.704 3.584-8.192 0-21.504-4.096-28.16-12.8-11.776-23.04-2.56-25.088-0.512-2.56 2.56-6.656 2.56-9.216 0s-2.56-6.656 0-9.216c0.512-0.512 8.704-9.216 21.504-9.216 7.68-0.512 15.872 3.072 22.528 9.728l1.024 1.024c5.12 8.192 11.776 26.624 5.632 40.96-2.56 6.144-8.704 13.824-22.016 15.872-3.584 2.048-9.216 3.072-15.872 3.072z" fill="#425960" /><path d="M531.456 428.032h-1.024C444.416 416.768 435.2 342.016 434.176 327.168c0-35.328 16.384-60.416 48.128-75.776 34.816-13.824 66.048-4.096 89.6 27.136 0 0.512 0.512 0.512 0.512 1.024 11.776 22.016 9.216 39.424 5.12 50.688-5.12 14.848-16.896 26.624-31.744 32.768h-0.512c-23.552 7.168-38.912 0.512-47.616-6.144-13.824-10.752-18.944-27.648-17.92-39.424 2.56-26.112 29.696-31.744 43.52-31.232 3.584 0 6.144 3.072 6.144 6.656 0 3.584-3.072 6.144-6.656 6.144-1.536 0-28.16-0.512-30.208 19.456-0.512 8.192 3.584 20.48 13.312 28.16 9.216 7.168 21.504 8.704 35.328 4.096 11.264-4.608 20.48-14.336 24.576-25.088 4.608-12.288 3.072-25.6-4.608-39.936-20.48-26.624-45.056-34.304-74.24-22.528-27.136 12.8-40.448 33.792-40.448 63.488 1.024 12.8 8.704 78.336 85.504 88.576 3.584 0.512 6.144 3.584 5.632 7.168 0 3.584-3.072 5.632-6.144 5.632z" fill="#425960" /><path d="M583.68 473.088c-7.68 0-16.384-1.536-26.624-5.632 0 0-0.512 0-0.512-0.512-18.944-9.728-37.376-33.792-26.624-68.608 3.584-10.24 23.552-59.392 89.6-44.544 0.512 0 0.512 0 1.024 0.512 9.728 4.096 57.856 27.136 54.272 87.552 0 3.584-3.072 6.144-6.656 6.144-3.584 0-6.144-3.072-6.144-6.656 2.56-50.688-36.864-70.656-46.08-74.752-53.76-11.776-70.144 24.576-73.728 36.352-8.192 26.624 4.608 45.056 19.968 52.736 17.92 6.656 33.28 5.632 42.496-3.072 8.192-9.728 11.264-20.992 8.192-30.208-2.048-7.68-8.192-13.312-17.408-15.872-5.632-1.536-10.752-1.536-14.848 0.512-6.656 3.584-9.216 11.776-9.216 11.776-1.024 3.584-4.608 5.632-7.68 4.608-3.584-1.024-5.632-4.608-4.608-7.68 0-0.512 3.584-13.312 15.36-19.456 7.168-4.096 15.36-4.608 24.576-1.536 13.312 4.096 22.528 12.8 25.6 24.576 4.096 13.824 0 29.696-11.264 42.496l-0.512 0.512c-4.096 4.096-13.824 10.752-29.184 10.752zM546.304 266.24h-1.536c-3.584-1.024-5.632-4.608-4.608-7.68 12.288-46.08-15.36-79.872-27.648-92.16-17.92-17.92-45.568-20.48-69.632-6.656-27.136 13.824-27.136 45.568-22.528 56.32 4.096 11.264 10.24 18.432 17.92 22.016 13.824 6.144 30.72 0 36.864-2.56 6.144-3.584 10.24-7.68 11.776-13.312 2.048-7.168 0-16.384-5.12-25.088-3.584-4.608-7.168-7.168-11.776-7.68-8.704-1.024-17.408 6.144-17.92 6.144-2.56 2.048-6.656 2.048-9.216-1.024-2.048-2.56-2.048-6.656 0.512-9.216 0.512-0.512 12.8-10.752 27.136-9.216 8.192 1.024 15.36 5.12 20.992 12.8 0 0 0 0.512 0.512 0.512 7.168 11.776 9.728 24.576 7.168 35.328-2.56 9.216-8.704 16.384-18.432 21.504 0 0-0.512 0-0.512 0.512-7.168 2.56-28.672 10.752-47.616 2.048-11.264-5.12-19.456-14.848-24.576-29.184-6.656-15.872-3.584-54.784 29.184-71.168 28.672-16.896 62.464-13.312 84.48 8.704 13.824 13.824 44.544 51.712 30.72 104.448-0.512 3.072-3.072 4.608-6.144 4.608z" fill="#425960" /><path d="M608.768 320.512c-1.024 0-1.536 0-2.56-0.512-2.048-1.024-46.592-21.504-54.784-64.512-3.072-25.088-8.704-66.048 44.544-89.6 0.512 0 0.512-0.512 1.024-0.512 28.672-7.168 65.024-3.072 75.264 31.232 9.728 36.864 1.024 62.976-23.04 72.192-12.288 3.584-30.208 3.584-43.008-4.096-8.704-5.12-14.336-13.312-15.872-23.04-2.048-7.168 0-23.04 10.24-33.792 5.632-5.632 15.872-11.776 32.256-7.68 3.584 1.024 5.632 4.096 4.608 7.68-1.024 3.584-4.096 5.632-7.68 4.608-8.704-2.048-15.36-0.512-19.968 4.096-6.656 6.656-8.192 17.92-7.168 22.016 1.536 7.168 4.608 11.776 10.24 15.36 9.216 5.632 23.04 5.632 32.256 3.072 23.04-8.704 19.456-39.424 14.848-56.32-9.728-32.768-52.224-24.064-59.392-22.016-44.032 19.456-39.936 52.224-36.864 75.776 6.656 36.352 47.104 54.784 47.616 55.296 3.072 1.536 4.608 5.12 3.072 8.704-1.024 0.512-3.072 2.048-5.632 2.048z" fill="#425960" /><path d="M648.704 378.368c-4.096 0-8.704-0.512-13.312-1.024-1.024 0-1.536-0.512-2.56-1.024l-0.512-0.512c-11.264-7.168-29.696-18.944-26.624-60.416v-0.512c1.536-8.704 9.728-38.912 50.688-49.664 27.648-8.192 65.536-7.168 82.432 14.336 2.048 2.56 1.536 6.656-1.024 9.216-2.56 2.048-6.656 1.536-9.216-1.024-12.8-15.872-44.032-17.408-69.12-10.24-32.256 8.192-39.424 29.696-40.96 38.912-2.048 32.768 10.24 41.472 19.968 48.128 23.552 3.072 34.304-5.12 41.472-12.288 5.12-7.168 6.656-14.336 4.608-21.504-1.536-7.168-6.656-12.8-13.824-16.384-11.776-6.144-21.504 4.608-21.504 4.608-2.56 2.56-6.656 3.072-9.216 0.512s-3.072-6.656-0.512-9.216c5.632-6.144 20.48-15.872 36.864-7.68 10.24 5.12 17.92 14.336 20.48 25.088 2.56 10.752 0 22.528-7.168 32.256l-0.512 0.512c-6.656 8.192-18.432 17.92-40.448 17.92zM402.432 488.448c-10.752 0-22.016-1.536-28.672-6.144-11.264-7.68-20.992-24.576-27.648-35.84-1.536-3.072-3.584-6.656-4.608-7.68-2.56-2.048-3.072-5.632-1.024-8.704 2.048-3.072 6.144-3.584 8.704-1.536 2.048 1.536 3.584 4.096 8.192 11.776 5.632 9.728 14.336 25.6 23.552 31.744 9.216 6.144 37.376 3.584 52.736 0.512 3.584-0.512 6.656 1.536 7.68 5.12s-1.536 6.656-5.12 7.68c-3.072 0.512-18.432 3.072-33.792 3.072z m-60.416-49.152zM329.216 427.52c-9.216 0-27.136-2.048-35.328-18.432 0-0.512-0.512-0.512-0.512-1.024-3.072-9.216-2.048-17.92-1.024-25.6 1.024-8.192 2.048-14.848-1.536-21.504-2.048-4.096-5.632-8.704-9.728-13.312-9.728-11.264-21.504-25.6-12.288-41.984 10.752-18.944 22.016-30.208 22.016-30.72 2.56-2.56 6.656-2.56 9.216 0s2.56 6.656 0 9.216c0 0-10.24 10.752-19.968 28.16-3.584 7.68 2.048 15.36 11.776 27.136 4.096 5.12 8.192 10.24 11.264 15.36 5.12 10.24 4.096 20.48 3.072 29.184-1.024 6.656-1.536 13.312 0 19.968 7.168 12.8 27.136 10.752 27.136 10.752 3.584-0.512 6.656 2.048 7.168 5.632 0.512 3.584-2.048 6.656-5.632 7.168-0.512-0.512-2.56 0-5.632 0zM349.696 212.48c-0.512 0-1.536 0-2.048-0.512-3.584-1.024-5.12-4.608-4.096-8.192 2.048-6.144 12.8-37.376 28.16-44.032 8.704-4.096 23.04-3.072 35.328-2.048 6.144 0.512 13.824 1.024 16.384 0.512 2.56-2.048 6.144-1.536 8.704 1.024s2.048 6.656-0.512 9.216c-4.096 3.584-11.776 3.584-25.088 2.56-10.24-0.512-23.552-1.536-29.184 1.024-7.68 3.584-16.896 23.552-20.992 36.352-1.024 2.56-3.584 4.096-6.656 4.096z m73.216-54.272z m1.024 0zM610.816 175.616c-5.632 0-11.776-4.608-24.064-14.336-9.728-7.68-23.04-18.432-29.696-18.944-11.776-1.024-43.008 9.728-54.272 13.824-3.072 1.024-7.168-0.512-8.192-3.584-1.024-3.072 0.512-7.168 3.584-8.192 4.608-1.536 43.008-15.872 59.904-14.848 10.752 1.024 24.064 11.264 36.864 21.504 5.632 4.608 13.312 10.752 16.384 11.776 3.072 0 6.144 2.56 6.144 6.144s-2.56 6.656-6.144 6.656h-0.512z m0.512-12.8z" fill="#425960" /><path d="M556.544 510.464c-13.824 0-27.136-3.584-33.28-7.168-1.536-0.512-3.072-1.024-4.608-2.048-4.096-1.536-11.264-4.608-13.824-4.096-2.048 2.56-6.144 2.56-8.704 0.512s-3.072-6.144-1.024-9.216c6.144-8.192 17.408-3.584 28.16 0.512 1.536 0.512 3.584 1.536 5.12 2.048 0.512 0 1.024 0.512 1.024 0.512 6.144 3.584 30.208 8.704 45.056 2.048 7.168-3.072 9.216-7.168 11.264-11.776 2.048-4.608 4.608-9.728 11.264-13.824 0.512-0.512 1.024-0.512 1.536-0.512 5.12-1.536 10.24 0 16.384 2.048 8.704 2.56 18.944 5.12 30.208 1.024 13.824-5.632 14.848-12.288 16.384-25.6 0.512-3.072 0.512-6.144 1.024-9.216 0.512-2.048 1.536-3.584 3.584-4.608 3.072-1.536 7.68-3.072 12.8-5.632 13.312-5.12 34.816-13.824 40.448-22.016 3.584-5.632 3.584-13.824 3.584-23.04 0-8.192 0-16.384 2.56-23.552 0.512-0.512 0.512-1.024 1.024-1.536 20.48-24.064 20.48-34.816 13.824-45.568-14.336-17.408-17.408-39.424-19.968-57.856-1.536-9.216-2.56-17.92-5.12-22.016-4.608-8.192-31.744-16.896-49.664-20.48-3.584-0.512-5.632-4.096-5.12-7.68 0.512-3.584 4.096-5.632 7.68-5.12 8.192 1.536 49.152 10.24 57.856 26.624 3.584 6.144 5.12 15.872 6.656 26.624 2.56 16.384 5.12 36.864 17.408 51.712l0.512 0.512c13.312 19.968 4.096 38.4-14.336 59.904-1.536 4.608-1.536 11.264-1.536 17.92 0 10.24 0.512 21.504-5.632 30.208-7.68 11.264-30.208 19.968-46.592 26.624-3.584 1.536-6.656 2.56-8.704 3.584 0 2.048-0.512 3.584-0.512 5.12-1.536 14.336-3.072 27.648-24.064 35.84-15.36 6.144-28.672 2.048-38.4-0.512-3.072-1.024-6.656-2.048-8.704-2.048-2.56 2.048-3.584 4.096-5.12 7.68-2.56 5.632-6.144 12.8-17.92 17.92-6.144 5.12-14.336 6.144-22.528 6.144z" fill="#425960" /><path d="M427.52 658.432c-1.536 0-3.584-0.512-4.608-2.048C346.624 573.44 324.096 431.616 323.072 425.472c-0.512-3.584 2.048-6.656 5.12-7.168 3.584-0.512 6.656 2.048 7.168 5.12 0 1.536 23.04 143.872 96.768 224.256 2.56 2.56 2.048 6.656-0.512 9.216-1.024 1.024-2.56 1.536-4.096 1.536z" fill="#425960" /><path d="M593.92 664.064c-2.048 0-3.584-1.024-5.12-2.56-2.048-2.56-2.048-6.656 1.024-9.216 67.072-55.296 102.4-226.816 102.912-228.352 0.512-3.584 4.096-5.632 7.68-5.12 3.584 0.512 5.632 4.096 5.12 7.68-1.536 7.168-36.352 177.664-107.008 236.032-2.048 1.024-3.584 1.536-4.608 1.536z" fill="#425960" /><path d="M493.568 692.736s-42.496-47.104-94.72-39.936c-5.632 2.56-18.432 22.016-14.848 67.584 3.584 32.256 6.144 64 17.92 66.048s72.192-14.848 91.136-48.128c-8.704-6.144-21.504-19.968-12.288-31.744 5.632-10.24 12.8-13.824 12.8-13.824z" fill="#7D9D5D" /><path d="M403.968 793.088h-3.072c-15.872-2.56-18.944-31.232-22.528-66.56l-0.512-5.12c-3.584-46.08 9.216-69.12 18.432-74.24 0.512-0.512 1.024-0.512 2.048-0.512 54.784-7.68 98.304 39.936 100.352 41.984 2.56 2.56 2.56 4.096-0.512 6.656-2.56 2.56-6.656 4.608-9.216 2.048-0.512-0.512-40.448-44.032-87.552-37.888-3.584 3.072-13.824 20.48-10.752 60.928l0.512 5.12c2.048 17.408 5.632 54.272 11.776 55.296 8.704 1.536 66.56-13.824 84.48-45.056 1.536-3.072 3.584-2.56 6.656-0.512 3.072 1.536 6.144 3.584 4.608 6.656-19.456 33.28-75.776 51.2-94.72 51.2z" fill="#425960" /><path d="M532.992 692.736s42.496-47.104 94.72-39.936c5.632 2.56 18.432 22.016 14.848 67.584-3.584 32.256-6.144 64-17.92 66.048s-72.192-14.848-91.136-48.128c8.704-6.144 21.504-19.968 12.288-31.744-5.12-10.24-12.8-13.824-12.8-13.824z" fill="#7D9D5D" /><path d="M623.104 793.088c-18.944 0-75.264-17.92-94.208-51.712-1.536-3.072 1.024-3.584 4.096-5.12 3.072-1.536 5.632-4.096 7.168-1.024 17.408 31.232 75.776 46.592 84.48 45.056 6.144-1.024 10.24-37.888 11.776-55.296l0.512-5.12c3.072-40.448-7.168-57.344-10.752-60.928-47.104-6.144-87.04 37.376-87.552 37.888-2.56 2.56-5.12 0-7.68-2.048-2.56-2.56-4.096-3.584-2.048-6.144 2.048-2.048 45.568-49.664 100.352-41.984 0.512 0 1.536 0.512 2.048 0.512 9.216 4.608 22.016 28.16 18.432 73.728l-0.512 5.12c-3.584 35.84-6.656 64-22.528 66.56-1.536 0.512-2.56 0.512-3.584 0.512z" fill="#425960" /><path d="M529.408 745.984h-31.232c-13.824 0-25.088-11.264-25.088-25.088v-10.752c0-13.824 11.264-25.088 25.088-25.088h31.232c13.824 0 25.088 11.264 25.088 25.088v10.752c0 13.824-11.264 25.088-25.088 25.088z m-31.232-48.128c-6.656 0-12.288 5.632-12.288 12.288v10.752c0 6.656 5.632 12.288 12.288 12.288h31.232c6.656 0 12.288-5.632 12.288-12.288v-10.752c0-6.656-5.632-12.288-12.288-12.288h-31.232z" fill="#425960" /><path d="M583.68 892.928h-1.536c-2.048-0.512-3.584-1.536-4.096-3.584l-62.976-134.656-62.464 133.12c-1.024 1.536-2.56 3.072-4.096 3.584-2.048 0.512-4.096 0-5.632-1.024l-34.304-26.112c-2.56-1.536-3.072-5.12-2.048-7.68l36.352-84.992c1.536-3.072 5.12-4.608 8.192-3.584 3.072 1.536 4.608 5.12 3.584 8.192L419.84 857.088l24.064 17.92 65.024-138.24c1.024-2.048 3.072-3.584 5.632-3.584s4.608 1.536 5.632 3.584l65.536 139.776 23.552-17.92-50.176-88.576c-1.536-3.072-0.512-7.168 2.56-8.704 3.072-1.536 7.168-0.512 8.704 2.56l52.736 93.184c1.536 2.56 1.024 6.144-1.536 8.192l-34.304 26.112c-1.024 1.024-2.56 1.536-3.584 1.536z" fill="#425960" /><path d="M514.56 895.488h-2.56c-43.008-2.048-55.296-40.448-55.808-42.496-1.024-3.584 1.024-7.168 4.096-8.192 3.584-1.024 7.168 1.024 8.192 4.096 0.512 1.536 10.752 31.744 44.544 33.28 18.944 1.024 47.104-15.872 49.152-29.696 0.512-3.584 3.584-6.144 7.168-5.632 3.584 0.512 6.144 3.584 5.632 7.168-3.072 22.016-36.352 41.472-60.416 41.472z" fill="#425960" /></svg>